<?xml version="1.0" standalone="no"?>
<svg xmlns:xlink="http://www.w3.org/1999/xlink" id="wave" style="transform:rotate(0deg); transition: 0.3s" viewBox="0 0 1440 490" version="1.1" xmlns="http://www.w3.org/2000/svg"><defs><linearGradient id="sw-gradient-0" x1="0" x2="0" y1="1" y2="0"><stop stop-color="rgba(255, 205.561, 0, 1)" offset="0%"/><stop stop-color="rgba(186.519, 169.663, 99.577, 1)" offset="100%"/></linearGradient></defs><path style="transform:translate(0, 0px); opacity:1" fill="url(#sw-gradient-0)" d="M0,196L120,228.7C240,261,480,327,720,294C960,261,1200,131,1440,130.7C1680,131,1920,261,2160,261.3C2400,261,2640,131,2880,138.8C3120,147,3360,294,3600,318.5C3840,343,4080,245,4320,204.2C4560,163,4800,180,5040,196C5280,212,5520,229,5760,196C6000,163,6240,82,6480,73.5C6720,65,6960,131,7200,179.7C7440,229,7680,261,7920,285.8C8160,310,8400,327,8640,334.8C8880,343,9120,343,9360,310.3C9600,278,9840,212,10080,171.5C10320,131,10560,114,10800,89.8C11040,65,11280,33,11520,89.8C11760,147,12000,294,12240,351.2C12480,408,12720,376,12960,326.7C13200,278,13440,212,13680,163.3C13920,114,14160,82,14400,114.3C14640,147,14880,245,15120,253.2C15360,261,15600,180,15840,147C16080,114,16320,131,16560,163.3C16800,196,17040,245,17160,269.5L17280,294L17280,490L17160,490C17040,490,16800,490,16560,490C16320,490,16080,490,15840,490C15600,490,15360,490,15120,490C14880,490,14640,490,14400,490C14160,490,13920,490,13680,490C13440,490,13200,490,12960,490C12720,490,12480,490,12240,490C12000,490,11760,490,11520,490C11280,490,11040,490,10800,490C10560,490,10320,490,10080,490C9840,490,9600,490,9360,490C9120,490,8880,490,8640,490C8400,490,8160,490,7920,490C7680,490,7440,490,7200,490C6960,490,6720,490,6480,490C6240,490,6000,490,5760,490C5520,490,5280,490,5040,490C4800,490,4560,490,4320,490C4080,490,3840,490,3600,490C3360,490,3120,490,2880,490C2640,490,2400,490,2160,490C1920,490,1680,490,1440,490C1200,490,960,490,720,490C480,490,240,490,120,490L0,490Z"/></svg>